<?xml version="1.0" standalone="no"?>
<!DOCTYPE svg PUBLIC "-//W3C//DTD SVG 20010904//EN"
 "http://www.w3.org/TR/2001/REC-SVG-20010904/DTD/svg10.dtd">
<svg version="1.0" xmlns="http://www.w3.org/2000/svg"
 width="710.000000pt" height="710.000000pt" viewBox="0 0 710.000000 710.000000"
 preserveAspectRatio="xMidYMid meet">
<metadata>
Created by potrace 1.14, written by Peter Selinger 2001-2017
</metadata>
<g transform="translate(0.000000,710.000000) scale(0.100000,-0.100000)"
fill="#000000" stroke="none">
<path d="M0 3545 l0 -3405 3550 0 3550 0 0 3405 0 3405 -3550 0 -3550 0 0
-3405z m1660 3315 c-8 -5 -22 -10 -30 -10 -13 0 -13 1 0 10 8 5 22 10 30 10
13 0 13 -1 0 -10z m70 4 c0 -8 -19 -13 -24 -6 -3 5 1 9 9 9 8 0 15 -2 15 -3z
m150 0 c0 -8 -19 -13 -24 -6 -3 5 1 9 9 9 8 0 15 -2 15 -3z m150 0 c0 -8 -19
-13 -24 -6 -3 5 1 9 9 9 8 0 15 -2 15 -3z m330 0 c0 -8 -19 -13 -24 -6 -3 5 1
9 9 9 8 0 15 -2 15 -3z m50 1 c0 -7 -30 -13 -34 -7 -3 4 4 9 15 9 10 1 19 0
19 -2z m120 -1 c0 -8 -19 -13 -24 -6 -3 5 1 9 9 9 8 0 15 -2 15 -3z m40 0 c0
-8 -19 -13 -24 -6 -3 5 1 9 9 9 8 0 15 -2 15 -3z m40 0 c0 -8 -19 -13 -24 -6
-3 5 1 9 9 9 8 0 15 -2 15 -3z m40 2 c0 -3 -4 -8 -10 -11 -5 -3 -10 -1 -10 4
0 6 5 11 10 11 6 0 10 -2 10 -4z m30 0 c0 -3 -4 -8 -10 -11 -5 -3 -10 -1 -10
4 0 6 5 11 10 11 6 0 10 -2 10 -4z m40 -2 c0 -8 -19 -13 -24 -6 -3 5 1 9 9 9
8 0 15 -2 15 -3z m100 -2 c0 -5 -9 -8 -20 -7 -29 2 -33 10 -5 13 14 1 25 -2
25 -6z m70 3 c0 -7 -30 -13 -34 -7 -3 4 4 9 15 9 10 1 19 0 19 -2z m40 -1 c0
-8 -19 -13 -24 -6 -3 5 1 9 9 9 8 0 15 -2 15 -3z m30 -4 c0 -5 -2 -10 -4 -10
-3 0 -8 5 -11 10 -3 6 -1 10 4 10 6 0 11 -4 11 -10z m130 6 c0 -3 -4 -8 -10
-11 -5 -3 -10 -1 -10 4 0 6 5 11 10 11 6 0 10 -2 10 -4z m40 -2 c0 -8 -19 -13
-24 -6 -3 5 1 9 9 9 8 0 15 -2 15 -3z m40 0 c0 -8 -19 -13 -24 -6 -3 5 1 9 9
9 8 0 15 -2 15 -3z m80 0 c0 -8 -19 -13 -24 -6 -3 5 1 9 9 9 8 0 15 -2 15 -3z
m320 0 c0 -8 -19 -13 -24 -6 -3 5 1 9 9 9 8 0 15 -2 15 -3z m40 0 c0 -8 -19
-13 -24 -6 -3 5 1 9 9 9 8 0 15 -2 15 -3z m120 0 c0 -8 -19 -13 -24 -6 -3 5 1
9 9 9 8 0 15 -2 15 -3z m120 0 c0 -8 -19 -13 -24 -6 -3 5 1 9 9 9 8 0 15 -2
15 -3z m40 0 c0 -8 -19 -13 -24 -6 -3 5 1 9 9 9 8 0 15 -2 15 -3z m150 0 c0
-8 -19 -13 -24 -6 -3 5 1 9 9 9 8 0 15 -2 15 -3z m40 0 c0 -8 -19 -13 -24 -6
-3 5 1 9 9 9 8 0 15 -2 15 -3z m40 0 c0 -8 -19 -13 -24 -6 -3 5 1 9 9 9 8 0
15 -2 15 -3z m46 -60 c8 -30 14 -60 12 -66 -2 -6 -10 14 -17 45 -7 31 -17 59
-22 62 -5 4 -9 11 -9 16 0 26 21 -8 36 -57z m-2545 23 c-6 -8 -9 -16 -7 -18 2
-2 7 -31 11 -64 3 -33 12 -63 18 -67 7 -4 8 -8 4 -8 -4 0 -3 -10 4 -21 9 -17
8 -20 -3 -17 -7 3 -13 9 -13 14 0 5 -3 14 -7 19 -4 6 -10 35 -13 65 -11 89
-10 110 6 110 8 0 9 -4 0 -13z m2573 -149 c3 -16 3 -28 -2 -28 -5 0 -9 6 -9
13 0 6 -3 23 -8 37 -5 16 -4 22 3 15 5 -5 12 -22 16 -37z m20 -102 c4 -21 9
-51 11 -65 5 -23 4 -24 -4 -5 -5 12 -12 34 -15 50 -3 16 -7 43 -11 59 -3 20
-2 25 4 15 5 -8 12 -33 15 -54z m-2568 17 c-10 -10 -19 5 -10 18 6 11 8 11 12
0 2 -7 1 -15 -2 -18z m-48 -4 c-10 -5 -19 -22 -19 -37 -2 -24 -2 -25 -6 -4 -5
24 12 52 31 52 6 0 3 -5 -6 -11z m-14 -95 c5 -14 4 -15 -9 -4 -17 14 -19 20
-6 20 5 0 12 -7 15 -16z m2657 -31 c0 -10 2 -25 4 -33 2 -8 7 -28 10 -45 3
-16 8 -39 12 -50 3 -14 2 -17 -5 -10 -6 6 -13 26 -15 45 -8 52 -17 93 -23 102
-3 4 0 8 5 8 6 0 11 -8 12 -17z m-2651 -18 c0 -14 -2 -25 -4 -25 -2 0 -6 11
-8 25 -3 14 -1 25 3 25 5 0 9 -11 9 -25z m17 -68 c2 -17 1 -19 -7 -7 -11 17
-14 47 -3 36 4 -3 8 -17 10 -29z m8 -36 c3 -5 2 -12 -3 -15 -5 -3 -9 1 -9 9 0
17 3 19 12 6z m15 -64 c0 -5 -4 -5 -10 -2 -5 3 -10 14 -10 23 0 15 2 15 10 2
5 -8 10 -19 10 -23z m2649 16 c0 -10 2 -34 5 -53 4 -26 4 -30 -3 -14 -14 32
-20 84 -11 84 5 0 9 -8 9 -17z m-2643 -50 c-3 -3 0 -15 6 -27 8 -16 8 -18 -1
-10 -15 14 -24 57 -10 48 6 -3 8 -8 5 -11z m2664 -53 c0 -5 -5 -10 -11 -10 -5
0 -7 5 -4 10 3 6 8 10 11 10 2 0 4 -4 4 -10z m-2647 -20 c3 -11 2 -20 -3 -20
-4 0 -10 9 -13 20 -3 11 -2 20 3 20 4 0 10 -9 13 -20z m2654 -12 c-2 -7 0 -23
4 -35 5 -12 5 -25 0 -27 -4 -3 -8 0 -8 7 0 7 -3 24 -6 40 -3 15 -1 27 4 27 6
0 9 -6 6 -12z m-2638 -68 c0 -9 -4 -8 -9 5 -5 11 -9 27 -9 35 0 9 4 8 9 -5 5
-11 9 -27 9 -35z m2657 -36 c-3 -7 -1 -16 3 -18 5 -3 11 -26 14 -51 4 -25 9
-57 12 -72 l5 -28 -11 25 c-6 14 -13 43 -15 65 -2 22 -7 47 -11 55 -12 29 -13
51 -2 45 6 -4 8 -13 5 -21z m-2646 1 c0 -8 -2 -15 -4 -15 -2 0 -6 7 -10 15 -3
8 -1 15 4 15 6 0 10 -7 10 -15z m5 -35 c3 -5 1 -10 -4 -10 -6 0 -11 5 -11 10
0 6 2 10 4 10 3 0 8 -4 11 -10z m2 -42 c-3 -8 -6 -5 -6 6 -1 11 2 17 5 13 3
-3 4 -12 1 -19z m23 -64 c0 -8 -5 -12 -10 -9 -6 4 -8 11 -5 16 9 14 15 11 15
-7z m16 -51 c-2 -3 0 -18 5 -36 5 -18 5 -27 0 -21 -5 5 -14 26 -19 47 -9 33
-9 37 4 26 8 -6 13 -14 10 -16z m2644 7 c0 -5 -2 -10 -4 -10 -3 0 -8 5 -11 10
-3 6 -1 10 4 10 6 0 11 -4 11 -10z m11 -62 c7 -24 13 -52 15 -63 1 -11 3 -20
4 -20 1 0 4 -13 6 -30 3 -25 2 -27 -6 -12 -6 9 -9 21 -5 26 3 5 1 12 -5 16 -6
4 -8 10 -5 15 3 5 1 19 -3 32 -14 35 -23 78 -18 78 3 0 11 -19 17 -42z m-2640
-25 c0 -5 3 -19 5 -32 2 -14 2 -22 -2 -19 -3 3 -6 12 -8 20 -1 7 -5 19 -9 26
-5 7 -4 12 2 12 6 0 11 -3 12 -7z m23 -114 c3 -13 5 -24 6 -24 6 0 6 -36 0
-40 -5 -3 -7 3 -5 12 1 10 0 23 -4 28 -3 6 -6 15 -7 21 -1 6 -5 22 -8 35 -6
19 -5 21 3 8 6 -9 13 -27 15 -40z m2660 -51 c4 -19 2 -28 -5 -28 -7 0 -10 3
-7 6 4 3 2 19 -3 37 -5 17 -5 26 0 21 5 -5 11 -21 15 -36z m-2634 -49 c0 -6
-4 -7 -10 -4 -5 3 -10 11 -10 16 0 6 5 7 10 4 6 -3 10 -11 10 -16z m2655 -38
c1 -18 -2 -28 -7 -25 -5 4 -8 14 -5 24 2 9 0 26 -6 36 -8 15 -7 17 3 7 7 -6
13 -25 15 -42z m-2648 13 c-3 -3 -2 -17 3 -30 6 -15 6 -24 0 -24 -6 0 -10 6
-10 14 0 8 -3 21 -6 30 -4 10 -1 16 7 16 7 0 10 -3 6 -6z m2659 -79 c-2 -7 1
-18 7 -24 6 -6 8 -11 4 -11 -3 0 -3 -10 2 -22 17 -46 21 -78 11 -78 -5 0 -9 3
-8 8 3 9 -16 99 -22 105 -8 7 -6 46 2 41 5 -3 7 -12 4 -19z m36 -159 c0 -3 8
-37 18 -76 10 -38 15 -68 11 -65 -4 2 -13 28 -19 57 -19 82 -22 101 -16 95 3
-3 6 -8 6 -11z m-2627 -86 c3 -5 1 -10 -4 -10 -6 0 -11 5 -11 10 0 6 2 10 4
10 3 0 8 -4 11 -10z m2669 -85 c-4 -8 -10 -12 -15 -9 -11 6 -2 24 11 24 5 0 7
-7 4 -15z m1 -35 c3 -5 1 -10 -4 -10 -6 0 -11 5 -11 10 0 6 2 10 4 10 3 0 8
-4 11 -10z m-2 -45 c4 -8 3 -16 -1 -19 -4 -3 -9 4 -9 15 -2 23 3 25 10 4z m-3
-65 c0 -5 -2 -10 -4 -10 -3 0 -8 5 -11 10 -3 6 -1 10 4 10 6 0 11 -4 11 -10z
m34 -49 c-2 -3 -12 3 -22 13 -16 17 -16 18 5 5 12 -7 20 -15 17 -18z m-4414
-11 c0 -5 -2 -10 -4 -10 -3 0 -8 5 -11 10 -3 6 -1 10 4 10 6 0 11 -4 11 -10z
m-30 -3 c0 -2 -15 -14 -32 -27 l-33 -23 24 26 c21 23 41 35 41 24z m6083 -4
c-7 -2 -19 -2 -25 0 -7 3 -2 5 12 5 14 0 19 -2 13 -5z m60 0 c-7 -2 -21 -2
-30 0 -10 3 -4 5 12 5 17 0 24 -2 18 -5z m60 0 c-7 -2 -21 -2 -30 0 -10 3 -4
5 12 5 17 0 24 -2 18 -5z m50 0 c-7 -2 -19 -2 -25 0 -7 3 -2 5 12 5 14 0 19
-2 13 -5z m57 -7 c0 -3 -4 -8 -10 -11 -5 -3 -10 -1 -10 4 0 6 5 11 10 11 6 0
10 -2 10 -4z m70 -16 c18 -12 2 -12 -25 0 -13 6 -15 9 -5 9 8 0 22 -4 30 -9z
m50 -44 c0 -6 -7 -1 -15 10 -8 10 -15 23 -15 28 0 6 7 1 15 -10 8 -10 15 -23
15 -28z m-5452 3 c-3 -8 -7 -3 -11 10 -4 17 -3 21 5 13 5 -5 8 -16 6 -23z
m-1029 -64 c0 -5 -4 -3 -9 5 -5 8 -9 22 -9 30 0 16 17 -16 18 -35z m6484 25
c3 -11 1 -18 -4 -14 -5 3 -9 12 -9 20 0 20 7 17 13 -6z m17 -62 c0 -19 -16 -5
-17 14 -2 18 0 20 7 8 5 -8 10 -18 10 -22z m8 -43 c-3 -3 -9 2 -12 12 -6 14
-5 15 5 6 7 -7 10 -15 7 -18z m-6484 -21 c3 -8 2 -12 -4 -9 -6 3 -10 10 -10
16 0 14 7 11 14 -7z m6496 -15 c0 -5 -4 -9 -8 -9 -5 0 -9 7 -9 15 0 8 4 12 9
9 4 -3 8 -9 8 -15z m-6541 -46 c-13 -16 -25 -30 -26 -32 -2 -2 -3 1 -3 7 0 13
35 52 47 52 3 0 -4 -12 -18 -27z m6561 -51 c0 -15 -2 -15 -10 -2 -13 20 -13
33 0 25 6 -3 10 -14 10 -23z m-6593 -14 c-3 -8 -6 -5 -6 6 -1 11 2 17 5 13 3
-3 4 -12 1 -19z m6608 -58 c10 -46 0 -36 -14 14 -5 22 -6 35 -2 30 5 -5 12
-25 16 -44z m-6597 34 c-3 -3 0 -31 7 -62 8 -31 12 -58 10 -60 -3 -4 -14 33
-29 101 -4 18 -2 27 5 27 7 0 10 -3 7 -6z m6609 -96 c-3 -8 -6 -5 -6 6 -1 11
2 17 5 13 3 -3 4 -12 1 -19z m-6578 -78 c0 -10 -3 -8 -9 5 -12 27 -12 43 0 25
5 -8 9 -22 9 -30z m6594 20 c3 -11 1 -18 -4 -14 -5 3 -9 12 -9 20 0 20 7 17
13 -6z m17 -65 c0 -5 -5 -3 -10 5 -5 8 -10 20 -10 25 0 6 5 3 10 -5 5 -8 10
-19 10 -25z m-6596 9 c3 -8 2 -12 -4 -9 -6 3 -10 10 -10 16 0 14 7 11 14 -7z
m10 -64 c-5 -5 -10 3 -11 18 -1 22 0 24 9 8 6 -10 6 -22 2 -26z m6596 30 c0
-5 -2 -10 -4 -10 -3 0 -8 5 -11 10 -3 6 -1 10 4 10 6 0 11 -4 11 -10z m7 -53
c2 -17 1 -19 -7 -7 -11 17 -14 47 -3 36 4 -3 8 -17 10 -29z m-6587 -1 c0 -3
-4 -8 -10 -11 -5 -3 -10 -1 -10 4 0 6 5 11 10 11 6 0 10 -2 10 -4z m6598 -51
c-3 -3 -9 2 -12 12 -6 14 -5 15 5 6 7 -7 10 -15 7 -18z m-6591 -27 c-3 -8 -6
-5 -6 6 -1 11 2 17 5 13 3 -3 4 -12 1 -19z m13 -28 c0 -5 -2 -10 -4 -10 -3 0
-8 5 -11 10 -3 6 -1 10 4 10 6 0 11 -4 11 -10z m6594 -26 c3 -8 2 -12 -4 -9
-6 3 -10 10 -10 16 0 14 7 11 14 -7z m14 -49 c-3 -3 -9 2 -12 12 -6 14 -5 15
5 6 7 -7 10 -15 7 -18z m-6585 -15 c3 -11 1 -18 -4 -14 -5 3 -9 12 -9 20 0 20
7 17 13 -6z m6597 -10 c0 -5 -2 -10 -4 -10 -3 0 -8 5 -11 10 -3 6 -1 10 4 10
6 0 11 -4 11 -10z m-6585 -50 c2 -12 1 -20 -2 -16 -4 4 -8 16 -10 28 -4 28 6
18 12 -12z m6611 -85 c3 -16 2 -27 -1 -24 -3 4 -7 15 -9 26 -3 11 -9 38 -15
59 -6 22 -10 44 -10 49 1 13 28 -71 35 -110z m-6596 34 c0 -6 -4 -7 -10 -4 -5
3 -10 11 -10 16 0 6 5 7 10 4 6 -3 10 -11 10 -16z m5 -28 c3 -5 2 -12 -3 -15
-5 -3 -9 1 -9 9 0 17 3 19 12 6z m14 -81 c0 -9 -4 -8 -9 5 -5 11 -9 27 -9 35
0 9 4 8 9 -5 5 -11 9 -27 9 -35z m6601 16 c0 -3 -4 -8 -10 -11 -5 -3 -10 -1
-10 4 0 6 5 11 10 11 6 0 10 -2 10 -4z m-6585 -46 c3 -5 1 -10 -4 -10 -6 0
-11 5 -11 10 0 6 2 10 4 10 3 0 8 -4 11 -10z m6595 -25 c0 -5 -5 -3 -10 5 -5
8 -10 20 -10 25 0 6 5 3 10 -5 5 -8 10 -19 10 -25z m-6593 -10 c0 -8 -4 -12
-9 -9 -5 3 -6 10 -3 15 9 13 12 11 12 -6z m6601 -41 c-3 -14 -5 -12 -10 9 -3
19 -2 25 4 19 6 -6 8 -18 6 -28z m-6570 -94 c0 -8 -6 1 -13 20 -7 19 -13 42
-13 50 0 8 6 -1 13 -20 7 -19 13 -42 13 -50z m6592 30 c0 -5 -4 -10 -10 -10
-5 0 -10 5 -10 10 0 6 5 10 10 10 6 0 10 -4 10 -10z m8 -56 c-3 -14 -5 -12
-10 9 -3 19 -2 25 4 19 6 -6 8 -18 6 -28z m-6591 0 c-3 -4 -2 -15 4 -25 5 -11
6 -19 1 -19 -6 0 -12 9 -15 19 -5 19 0 31 11 31 3 0 2 -3 -1 -6z m6603 -49 c0
-8 -2 -15 -4 -15 -2 0 -6 7 -10 15 -3 8 -1 15 4 15 6 0 10 -7 10 -15z m18 -83
c4 -35 -5 -25 -12 12 -3 16 -2 25 1 22 4 -4 9 -19 11 -34z m-6594 2 c3 -8 2
-12 -4 -9 -6 3 -10 10 -10 16 0 14 7 11 14 -7z m24 -93 c15 -67 9 -79 -7 -14
-7 26 -14 57 -18 68 -3 13 -2 16 4 10 5 -5 15 -34 21 -64z m6585 39 c3 -11 1
-20 -4 -20 -5 0 -9 9 -9 20 0 11 2 20 4 20 2 0 6 -9 9 -20z m17 -74 c0 -26 -6
-18 -14 19 -5 22 -4 26 4 15 5 -8 10 -24 10 -34z m-6576 -72 c3 -8 2 -12 -4
-9 -6 3 -10 10 -10 16 0 14 7 11 14 -7z m6596 -19 c0 -5 -5 -3 -10 5 -5 8 -10
20 -10 25 0 6 5 3 10 -5 5 -8 10 -19 10 -25z m-6582 -36 c-3 -8 -7 -3 -11 10
-4 17 -3 21 5 13 5 -5 8 -16 6 -23z m6589 -21 c-3 -8 -6 -5 -6 6 -1 11 2 17 5
13 3 -3 4 -12 1 -19z m-6580 -13 c0 -8 -4 -12 -9 -9 -4 3 -8 9 -8 15 0 5 4 9
8 9 5 0 9 -7 9 -15z m6602 -45 c6 -19 7 -30 2 -25 -5 6 -13 24 -17 40 -9 39 0
30 15 -15z m-6596 0 c3 -11 1 -18 -4 -14 -5 3 -9 12 -9 20 0 20 7 17 13 -6z
m14 -52 c2 -18 0 -20 -7 -8 -12 18 -13 30 -2 30 4 0 9 -10 9 -22z m6603 -2 c0
-3 -4 -8 -10 -11 -5 -3 -10 -1 -10 4 0 6 5 11 10 11 6 0 10 -2 10 -4z m-6587
-56 c3 -11 2 -20 -3 -20 -4 0 -10 11 -12 25 -6 29 7 25 15 -5z m6587 20 c0 -5
-2 -10 -4 -10 -3 0 -8 5 -11 10 -3 6 -1 10 4 10 6 0 11 -4 11 -10z m10 -55 c0
-5 -5 -3 -10 5 -5 8 -10 20 -10 25 0 6 5 3 10 -5 5 -8 10 -19 10 -25z m-6586
-11 c3 -8 2 -12 -4 -9 -6 3 -10 10 -10 16 0 14 7 11 14 -7z m9 -44 c3 -11 1
-18 -4 -14 -5 3 -9 12 -9 20 0 20 7 17 13 -6z m6592 0 c3 -5 1 -10 -4 -10 -6
0 -11 5 -11 10 0 6 2 10 4 10 3 0 8 -4 11 -10z m-6570 -99 c3 -24 10 -54 15
-67 5 -13 6 -24 1 -24 -8 0 -14 21 -27 100 -3 14 -7 34 -10 45 -4 16 -3 17 5
5 5 -8 12 -35 16 -59z m6583 23 c-3 -14 -5 -12 -10 9 -3 19 -2 25 4 19 6 -6 8
-18 6 -28z m20 -89 c-3 -3 -9 2 -12 12 -6 14 -5 15 5 6 7 -7 10 -15 7 -18z
m-6574 -51 c3 -8 2 -12 -4 -9 -6 3 -10 10 -10 16 0 14 7 11 14 -7z m6596 -29
c0 -8 -2 -15 -4 -15 -2 0 -6 7 -10 15 -3 8 -1 15 4 15 6 0 10 -7 10 -15z
m-6587 -10 c4 -8 3 -16 -1 -19 -4 -3 -9 4 -9 15 -2 23 3 25 10 4z m6600 -40
c-7 -21 -12 -19 -10 4 0 11 5 18 9 15 4 -3 5 -11 1 -19z m-6588 -5 c3 -5 1
-10 -4 -10 -6 0 -11 5 -11 10 0 6 2 10 4 10 3 0 8 -4 11 -10z m9 -35 c3 -8 1
-15 -4 -15 -6 0 -10 7 -10 15 0 8 2 15 4 15 2 0 6 -7 10 -15z m6583 -7 c-3 -8
-6 -5 -6 6 -1 11 2 17 5 13 3 -3 4 -12 1 -19z m-6572 -48 c2 -12 1 -20 -2 -16
-4 4 -8 16 -10 28 -4 28 6 18 12 -12z m6590 -11 c3 -25 2 -30 -5 -19 -10 16
-14 67 -4 58 3 -3 7 -21 9 -39z m-4636 -6 c-1 -5 0 -10 1 -13 1 -3 3 -14 5
-24 2 -11 7 -31 10 -45 4 -18 3 -23 -4 -16 -6 6 -11 25 -13 43 -1 19 -6 36
-10 38 -5 3 -6 10 -3 15 7 11 15 12 14 2z m-1939 -57 c0 -26 -6 -18 -14 19 -5
22 -4 26 4 15 5 -8 10 -24 10 -34z m6577 -28 c-3 -8 -6 -5 -6 6 -1 11 2 17 5
13 3 -3 4 -12 1 -19z m-6562 -8 c3 -5 1 -10 -4 -10 -6 0 -11 5 -11 10 0 6 2
10 4 10 3 0 8 -4 11 -10z m6545 -25 c-7 -8 -17 -15 -22 -15 -11 0 14 29 26 30
5 0 3 -7 -4 -15z m-4775 -24 c-3 -6 -26 -11 -49 -11 -41 0 -43 -1 -40 -27 4
-28 4 -28 -5 -3 -11 35 -6 40 45 40 27 0 44 5 44 12 0 6 3 9 6 5 3 -3 3 -10
-1 -16z m-1756 -41 c0 -9 -4 -8 -9 5 -5 11 -9 27 -9 35 0 9 4 8 9 -5 5 -11 9
-27 9 -35z m376 32 c-3 -3 -11 0 -18 7 -9 10 -8 11 6 5 10 -3 15 -9 12 -12z
m59 6 c-3 -4 -9 -8 -15 -8 -5 0 -9 4 -9 8 0 5 7 9 15 9 8 0 12 -4 9 -9z m653
-2 c4 -3 -10 -6 -30 -6 -20 0 -38 3 -41 8 -5 8 62 7 71 -2z m5393 -6 c-12 -22
-21 -26 -17 -7 2 10 17 26 25 27 1 0 -2 -9 -8 -20z m-6143 -12 c-3 -8 -6 -5
-6 6 -1 11 2 17 5 13 3 -3 4 -12 1 -19z m661 10 c-3 -7 1 -33 9 -57 7 -24 11
-46 9 -49 -3 -2 -10 16 -16 39 -18 68 -20 79 -9 79 6 0 9 -6 7 -12z m948 -24
c3 -16 2 -26 -1 -23 -3 4 -8 19 -11 35 -3 16 -2 26 1 23 3 -4 8 -19 11 -35z
m-1933 -44 c3 -11 1 -18 -4 -14 -5 3 -9 12 -9 20 0 20 7 17 13 -6z m6477 0 c0
-11 -2 -20 -4 -20 -2 0 -6 9 -9 20 -3 11 -1 20 4 20 5 0 9 -9 9 -20z m-4525
-23 c-1 -12 1 -31 6 -43 4 -11 10 -36 13 -56 3 -19 8 -43 11 -54 6 -16 5 -16
-4 -3 -5 9 -13 31 -16 50 -3 19 -10 48 -14 64 -18 60 -19 74 -7 69 7 -3 12
-15 11 -27z m-1608 -9 c-3 -8 -6 -5 -6 6 -1 11 2 17 5 13 3 -3 4 -12 1 -19z
m280 3 c0 -11 -5 -18 -9 -15 -4 3 -5 11 -1 19 7 21 12 19 10 -4z m657 -27 c3
-8 2 -12 -4 -9 -6 3 -10 10 -10 16 0 14 7 11 14 -7z m403 -36 c6 -22 8 -37 3
-32 -10 11 -32 89 -22 80 4 -4 12 -26 19 -48z m-1672 32 c3 -5 1 -10 -4 -10
-6 0 -11 5 -11 10 0 6 2 10 4 10 3 0 8 -4 11 -10z m345 0 c0 -5 -2 -10 -4 -10
-3 0 -8 5 -11 10 -3 6 -1 10 4 10 6 0 11 -4 11 -10z m6138 -15 c-3 -3 -9 2
-12 12 -6 14 -5 15 5 6 7 -7 10 -15 7 -18z m-5848 -54 c10 -34 15 -59 10 -56
-4 2 -13 24 -19 49 -6 24 -14 52 -17 62 -4 11 -4 16 0 13 4 -4 16 -34 26 -68z
m-621 4 c0 -5 -4 -3 -9 5 -5 8 -9 22 -9 30 0 16 17 -16 18 -35z m1271 35 c0
-5 -4 -10 -10 -10 -5 0 -10 5 -10 10 0 6 5 10 10 10 6 0 10 -4 10 -10z m-273
-27 c1 -24 0 -25 -6 -8 -7 17 -6 35 2 35 2 0 3 -12 4 -27z m278 -2 c3 -5 1
-12 -5 -16 -5 -3 -10 1 -10 9 0 18 6 21 15 7z m-925 -22 c0 -6 -4 -7 -10 -4
-5 3 -10 11 -10 16 0 6 5 7 10 4 6 -3 10 -11 10 -16z m6110 8 c0 -2 -10 -12
-21 -23 -22 -19 -22 -19 -8 4 12 19 29 30 29 19z m-6396 -44 c17 -10 18 -13 4
-13 -9 0 -23 7 -32 15 -8 8 -19 15 -25 15 -6 0 -11 5 -11 10 0 7 8 6 21 -2 12
-7 31 -19 43 -25z m1609 -6 c-2 -4 -17 -6 -33 -5 -16 1 -27 5 -25 9 3 3 16 4
29 2 21 -4 24 -2 20 18 -4 21 -3 22 5 4 4 -11 7 -23 4 -28z m-665 11 c-3 -22
-8 -23 -90 -23 -49 0 -88 3 -88 7 0 4 38 6 86 5 77 -2 85 0 80 15 -2 10 0 18
6 18 5 0 8 -10 6 -22z m307 -11 c19 -5 19 -5 0 -6 -22 -1 -45 16 -45 34 0 5 6
3 13 -6 7 -9 21 -19 32 -22z m199 5 c2 -4 -5 -9 -17 -9 -17 -2 -19 0 -7 7 18
12 18 12 24 2z m4891 -2 c-3 -5 -18 -9 -33 -9 l-27 1 30 8 c17 4 31 8 33 9 2
0 0 -3 -3 -9z m-6276 -10 c-6 -5 -18 -6 -26 -3 -19 8 -16 11 13 11 17 0 22 -3
13 -8z m71 6 c0 -2 -7 -6 -15 -10 -8 -3 -15 -1 -15 4 0 6 7 10 15 10 8 0 15
-2 15 -4z m44 -5 c-9 -9 -34 -9 -34 -1 0 5 9 8 20 7 10 -1 17 -3 14 -6z m76 0
c0 -5 -12 -7 -26 -5 -37 4 -39 11 -4 12 16 0 30 -3 30 -7z m357 3 c-3 -3 -12
-4 -19 -1 -8 3 -5 6 6 6 11 1 17 -2 13 -5z m138 -5 c-5 -8 -113 -4 -122 5 -3
3 24 5 60 4 36 -1 64 -5 62 -9z m568 4 c-7 -2 -21 -2 -30 0 -10 3 -4 5 12 5
17 0 24 -2 18 -5z m44 1 c-3 -3 -12 -4 -19 -1 -8 3 -5 6 6 6 11 1 17 -2 13 -5z
m40 0 c-3 -3 -12 -4 -19 -1 -8 3 -5 6 6 6 11 1 17 -2 13 -5z m110 0 c-3 -3
-12 -4 -19 -1 -8 3 -5 6 6 6 11 1 17 -2 13 -5z m4020 0 c-3 -3 -12 -4 -19 -1
-8 3 -5 6 6 6 11 1 17 -2 13 -5z m53 -2 c0 -4 -9 -8 -20 -8 -11 0 -20 4 -20 8
0 4 9 8 20 8 11 0 20 -4 20 -8z m180 -3 c0 -7 -141 -1 -149 6 -2 3 31 4 73 3
42 -1 76 -5 76 -9z m30 1 c0 -5 -2 -10 -4 -10 -3 0 -8 5 -11 10 -3 6 -1 10 4
10 6 0 11 -4 11 -10z m90 3 c0 -5 -18 -8 -40 -9 -22 0 -40 4 -40 8 0 4 18 8
40 8 22 0 40 -3 40 -7z m125 -2 c-8 -8 -106 -7 -111 1 -3 4 22 7 55 6 33 -1
58 -4 56 -7z m115 6 c-9 -8 -100 -15 -100 -8 0 4 24 8 52 10 29 1 50 0 48 -2z
m53 -4 c-7 -2 -21 -2 -30 0 -10 3 -4 5 12 5 17 0 24 -2 18 -5z m44 1 c-3 -3
-12 -4 -19 -1 -8 3 -5 6 6 6 11 1 17 -2 13 -5z m-4320 -20 c-3 -4 -2 -15 3
-25 6 -10 6 -20 2 -23 -5 -3 -9 0 -9 7 0 7 -4 20 -8 30 -5 11 -3 17 6 17 7 0
9 -3 6 -6z m2657 -26 c3 -16 3 -28 -2 -28 -4 0 -9 14 -10 32 -3 37 2 35 12 -4z
m-2639 -48 c3 -5 1 -10 -4 -10 -6 0 -11 5 -11 10 0 6 2 10 4 10 3 0 8 -4 11
-10z m2655 -11 c0 -5 -4 -9 -8 -9 -5 0 -9 7 -9 15 0 8 4 12 9 9 4 -3 8 -9 8
-15z m-2647 -34 c-7 -21 -13 -19 -13 6 0 11 4 18 10 14 5 -3 7 -12 3 -20z
m2656 -27 c1 -5 -3 -8 -7 -8 -4 0 -8 12 -9 28 -1 23 -1 24 7 7 5 -11 9 -23 9
-27z m-2644 -7 c3 -5 1 -12 -5 -16 -5 -3 -10 1 -10 9 0 18 6 21 15 7z m2655
-35 c0 -8 3 -21 6 -30 4 -10 1 -16 -7 -16 -7 0 -10 3 -6 6 3 3 2 17 -3 30 -6
15 -6 24 0 24 6 0 10 -6 10 -14z m-2650 -16 c0 -11 -2 -20 -4 -20 -2 0 -6 9
-9 20 -3 11 -1 20 4 20 5 0 9 -9 9 -20z m14 -45 c3 -8 1 -15 -4 -15 -6 0 -10
7 -10 15 0 8 2 15 4 15 2 0 6 -7 10 -15z m2659 -45 c3 -11 2 -20 -3 -20 -4 0
-10 11 -12 25 -6 29 7 25 15 -5z m-2650 -23 c-3 -4 1 -14 7 -22 9 -11 9 -15 1
-15 -12 0 -12 -1 -16 50 -3 25 -1 30 4 15 5 -11 6 -24 4 -28z m2661 -38 c2
-13 5 -24 6 -24 1 0 3 -13 5 -29 2 -15 1 -25 -2 -22 -4 3 -7 16 -9 29 -1 12
-3 22 -4 22 -1 0 -4 13 -6 30 -6 35 3 30 10 -6z m-2642 -34 c3 -13 1 -22 -3
-19 -9 5 -13 44 -5 44 2 0 6 -11 8 -25z m16 -71 c2 -21 0 -25 -7 -14 -5 8 -7
18 -4 23 3 5 -1 14 -8 19 -12 8 -11 9 1 5 8 -2 16 -17 18 -33z m2655 -14 c3
-11 2 -20 -3 -20 -4 0 -10 11 -12 25 -6 29 7 25 15 -5z m4 -52 c-3 -8 -6 -5
-6 6 -1 11 2 17 5 13 3 -3 4 -12 1 -19z m-2642 2 c3 -5 1 -10 -4 -10 -6 0 -11
5 -11 10 0 6 2 10 4 10 3 0 8 -4 11 -10z m2655 -30 c0 -5 -2 -10 -4 -10 -3 0
-8 5 -11 10 -3 6 -1 10 4 10 6 0 11 -4 11 -10z m-2650 -10 c0 -5 -2 -10 -4
-10 -3 0 -8 5 -11 10 -3 6 -1 10 4 10 6 0 11 -4 11 -10z m2660 -20 c0 -5 -4
-10 -10 -10 -5 0 -10 5 -10 10 0 6 5 10 10 10 6 0 10 -4 10 -10z m-2652 -25
c-3 -3 -9 2 -12 12 -6 14 -5 15 5 6 7 -7 10 -15 7 -18z m2655 -15 c3 -11 1
-18 -4 -14 -5 3 -9 12 -9 20 0 20 7 17 13 -6z m-2640 -30 c3 -11 2 -20 -3 -20
-4 0 -10 11 -12 25 -6 29 7 25 15 -5z m2654 -30 c1 -17 -1 -30 -5 -30 -4 0 -8
14 -9 30 -1 17 1 30 5 30 4 0 8 -14 9 -30z m-2642 -20 c-3 -5 -11 -10 -16 -10
-6 0 -7 5 -4 10 3 6 11 10 16 10 6 0 7 -4 4 -10z m7 -50 c3 -16 3 -30 1 -30
-7 0 -21 45 -16 53 7 13 11 8 15 -23z m2648 11 c0 -5 3 -16 6 -25 4 -10 1 -16
-7 -16 -7 0 -9 3 -6 6 3 4 2 15 -4 25 -6 13 -6 19 1 19 5 0 10 -4 10 -9z
m-2633 -84 c2 -17 1 -19 -7 -7 -11 17 -14 47 -3 36 4 -3 8 -17 10 -29z m2653
-11 c0 -26 -6 -18 -14 19 -5 22 -4 26 4 15 5 -8 10 -24 10 -34z m-2643 -38 c2
-17 0 -19 -7 -8 -5 8 -6 18 -4 22 8 12 10 10 11 -14z m2653 2 c0 -5 -2 -10 -4
-10 -3 0 -8 5 -11 10 -3 6 -1 10 4 10 6 0 11 -4 11 -10z m10 -44 c0 -13 3 -31
6 -40 4 -10 1 -16 -7 -16 -7 0 -10 2 -7 6 3 3 2 21 -2 40 -4 19 -4 34 1 34 5
0 9 -11 9 -24z m-2645 -36 c10 -46 0 -36 -14 14 -5 22 -6 35 -2 30 5 -5 12
-25 16 -44z m2674 -100 c6 -30 13 -66 17 -80 4 -14 3 -21 -1 -17 -5 4 -10 13
-11 20 -1 7 -9 43 -16 80 -8 37 -11 64 -7 60 4 -4 12 -33 18 -63z m-2661 48
c0 -7 3 -24 7 -38 3 -14 8 -36 11 -49 3 -14 8 -29 11 -34 3 -6 1 -7 -5 -3 -9
6 -14 20 -26 81 -2 11 -7 28 -11 38 -4 9 -3 17 2 17 5 0 10 -6 11 -12z m2695
-188 c3 -11 2 -20 -3 -20 -4 0 -10 11 -12 25 -6 29 7 25 15 -5z m-2654 -13 c0
-21 -1 -21 -9 -2 -12 28 -12 37 0 30 6 -3 10 -16 9 -28z m2658 -39 c-3 -8 -6
-5 -6 6 -1 11 2 17 5 13 3 -3 4 -12 1 -19z m-2640 -21 c0 -7 3 -25 7 -40 3
-15 3 -27 -2 -27 -5 0 -9 6 -9 13 0 7 -3 25 -7 40 -3 15 -3 27 2 27 5 0 9 -6
9 -13z m2657 -34 c4 -21 9 -46 12 -55 3 -10 2 -18 -3 -18 -5 0 -10 13 -11 30
-1 16 -7 41 -12 55 -5 14 -6 25 -1 25 5 0 12 -17 15 -37z m-2634 -69 c0 -8 -4
-12 -10 -9 -5 3 -10 13 -10 21 0 8 5 12 10 9 6 -3 10 -13 10 -21z m4 -40 c3
-8 2 -12 -4 -9 -6 3 -10 10 -10 16 0 14 7 11 14 -7z m2657 -1 c1 -23 5 -44 14
-65 4 -10 3 -18 -2 -18 -5 0 -10 6 -11 13 -1 20 -13 70 -18 79 -3 4 0 8 5 8 6
0 11 -8 12 -17z m-2646 -32 c3 -5 2 -12 -3 -15 -5 -3 -9 1 -9 9 0 17 3 19 12
6z m2 -53 c-3 -8 -6 -5 -6 6 -1 11 2 17 5 13 3 -3 4 -12 1 -19z m2672 -85 c1
-17 -2 -34 -7 -37 -4 -2 -6 13 -5 35 1 21 -2 41 -7 44 -5 3 -6 13 -3 23 6 14
8 13 14 -8 4 -14 7 -39 8 -57z m-2652 34 c2 -17 1 -19 -7 -7 -11 17 -14 47 -3
36 4 -3 8 -17 10 -29z m18 -104 l5 -48 -10 40 c-20 79 -21 92 -10 73 6 -9 12
-38 15 -65z m2599 -5 c-16 -12 -33 -25 -37 -29 -5 -4 -4 -16 2 -28 7 -12 8
-21 2 -21 -13 0 -25 54 -12 58 6 2 21 12 33 22 13 11 27 19 32 20 5 0 -4 -10
-20 -22z m-2570 -114 c3 -8 2 -12 -4 -9 -6 3 -10 10 -10 16 0 14 7 11 14 -7z
m2559 -49 c2 -16 0 -42 -5 -57 -10 -27 -63 -68 -89 -68 -8 0 5 9 28 21 52 26
68 65 52 123 -5 18 -5 26 1 20 5 -5 11 -22 13 -39z m-2514 -90 c15 -19 15 -19
-3 -5 -21 16 -31 39 -39 90 -4 24 -1 19 9 -15 9 -27 24 -59 33 -70z m52 -33
c-7 -2 -18 1 -23 6 -8 8 -4 9 13 5 13 -4 18 -8 10 -11z m244 0 c-8 -8 -166 -9
-170 -1 -3 3 36 6 86 6 49 0 87 -2 84 -5z m90 0 c-9 -9 -75 -10 -75 -1 0 4 18
7 40 7 23 0 38 -3 35 -6z m71 1 c-8 -8 -56 -10 -56 -2 0 4 14 7 30 7 17 -1 28
-3 26 -5z m249 -1 c-8 -8 -235 -9 -235 -1 0 4 54 7 120 6 66 0 118 -3 115 -5z
m45 -2 c0 -5 -4 -10 -9 -10 -6 0 -13 5 -16 10 -3 6 1 10 9 10 9 0 16 -4 16
-10z m30 0 c0 -5 -2 -10 -4 -10 -3 0 -8 5 -11 10 -3 6 -1 10 4 10 6 0 11 -4
11 -10z m90 1 c0 -4 -18 -7 -40 -7 -22 0 -40 3 -40 7 0 4 18 7 40 7 22 0 40
-4 40 -7z m30 -1 c0 -5 -2 -10 -4 -10 -3 0 -8 5 -11 10 -3 6 -1 10 4 10 6 0
11 -4 11 -10z m74 1 c-9 -9 -64 -9 -64 0 0 5 16 9 35 7 19 -1 32 -4 29 -7z
m36 -1 c0 -5 -4 -10 -10 -10 -5 0 -10 5 -10 10 0 6 5 10 10 10 6 0 10 -4 10
-10z m165 2 c-8 -8 -154 -9 -149 -1 2 4 38 7 79 6 41 0 73 -3 70 -5z m199 -1
c-8 -8 -184 -8 -184 0 0 4 43 6 95 6 52 0 92 -3 89 -6z m36 -1 c0 -5 -4 -10
-10 -10 -5 0 -10 5 -10 10 0 6 5 10 10 10 6 0 10 -4 10 -10z m44 1 c-9 -9 -34
-9 -34 -1 0 5 9 8 20 7 10 -1 17 -3 14 -6z m36 -1 c0 -5 -4 -10 -10 -10 -5 0
-10 5 -10 10 0 6 5 10 10 10 6 0 10 -4 10 -10z m50 5 c0 -7 -30 -13 -34 -7 -3
4 4 9 15 9 10 1 19 0 19 -2z m50 -3 c0 -4 -9 -8 -20 -9 -11 -1 -20 2 -20 8 0
5 9 9 20 9 11 0 20 -4 20 -8z m315 0 c-8 -8 -266 -9 -270 -1 -3 3 58 6 135 6
77 0 138 -2 135 -5z m160 -3 c-5 -7 -124 -3 -132 5 -3 3 25 5 64 4 39 -2 70
-6 68 -9z m225 2 c0 -3 -41 -6 -90 -6 -50 0 -90 3 -90 6 0 4 41 7 90 6 50 0
90 -3 90 -6z m110 1 c0 -4 -20 -7 -45 -8 -59 -1 -59 11 0 14 25 1 45 -2 45 -6z"/>
</g>
</svg>
